<?xml version="1.0" encoding="utf-8"?>
<!-- Generator: Adobe Illustrator 27.6.1, SVG Export Plug-In . SVG Version: 6.00 Build 0)  -->
<svg version="1.1" id="Ebene_1" xmlns="http://www.w3.org/2000/svg" xmlns:xlink="http://www.w3.org/1999/xlink" x="0px" y="0px"
	 viewBox="0 0 188.6 233.47" style="enable-background:new 0 0 188.6 233.47;" xml:space="preserve">
<style type="text/css">
	.st0{fill:#010001;}
</style>
<g>
	<path class="st0" d="M19.02,50.6c15.05,0,24.43-6.46,24.43-16.46C43.45,19.44,23,18.2,23,9.26c0-2.57,1.86-4.16,4.78-4.16h0.8
		c3.45,4.78,7.17,9.12,11.68,13.9h0.35V3.5h-0.27l-5.93,1.42C32.3,4.48,30,4.21,27.96,4.21c-14.78,0-23.1,6.99-23.1,16.02
		c0,14.69,20.45,15.93,20.45,24.87c0,2.48-2.04,4.6-6.11,4.6h-1.06c-3.63-5.22-7.26-9.47-12.22-14.69H5.57v15.76h0.27l5.13-1.5
		C13.89,50.07,16.81,50.6,19.02,50.6"/>
	<path class="st0" d="M78.01,27.05c0,18.15-0.89,22.84-4.16,22.84c-3.63,0-4.87-6.46-4.87-22.13c0-18.15,0.89-22.84,4.16-22.84
		C76.77,4.92,78.01,11.38,78.01,27.05 M100.4,25.99c0-13.1-10.09-21.95-25.67-21.95C58,4.04,46.58,14.39,46.58,28.82
		c0,13.1,10.09,21.95,25.67,21.95C88.98,50.77,100.4,40.42,100.4,25.99"/>
	<path class="st0" d="M126.49,157.4v0.27h28.15v-0.27c-1.15-0.35-2.74-0.8-3.81-1.06v-32.31c0-7.35-4.16-11.68-11.07-11.68
		c-6.73,0-13.19,4.51-18.77,10.44c-0.44-6.55-4.51-10.44-11.06-10.44c-6.73,0-13.28,4.6-18.86,10.53l0.18-11.07h-0.62
		c-7.17,1.95-17.79,5.31-24.79,8.14v0.27l3.81,0.62v35.5c-1.06,0.26-2.66,0.71-3.81,1.06v0.27H94v-0.27
		c-0.8-0.35-2.04-0.8-2.83-1.06v-32.66c1.33-0.97,3.01-1.77,4.96-1.77c2.74,0,3.36,2.04,3.36,4.25v30.18
		c-0.8,0.26-2.04,0.71-2.83,1.06v0.27h27.17v-0.27c-0.8-0.35-2.03-0.8-2.83-1.06v-32.31v-0.35c1.33-0.97,3.01-1.77,4.96-1.77
		c2.74,0,3.36,2.04,3.36,4.25v30.18C128.52,156.61,127.28,157.05,126.49,157.4"/>
	<path class="st0" d="M156.45,157.4v0.27h29.12v-0.27c-1.15-0.35-2.74-0.8-3.81-1.06v-33.55l0.27-10.98h-0.62
		c-7.17,1.86-17.88,5.31-24.96,8.14v0.27l3.81,0.62v35.5C159.19,156.61,157.6,157.05,156.45,157.4"/>
	<path class="st0" d="M161.85,100.13c0,5.67,4.25,9.91,9.91,9.91c5.67,0,9.91-4.25,9.91-9.91c0-5.66-4.25-9.91-9.91-9.91
		C166.1,90.22,161.85,94.47,161.85,100.13"/>
	<path class="st0" d="M27.35,231.04c3.63,0,6.2-1.33,8.5-3.63c2.48-2.48,7.26-10.98,23.72-50.01c2.04-2.74,4.25-6.2,6.02-9.47v-0.27
		H51.96v0.27c1.59,2.66,3.9,6.46,5.93,9.29l-3.01,8.32c-0.71,1.95-1.5,4.07-2.3,6.11h-0.09c-0.97-2.21-1.77-4.25-2.83-6.46
		l-7.52-16.29c1.5-0.27,3.81-0.62,5.4-0.97v-0.27H15.58v0.27c0.62,0.35,1.68,0.71,2.48,0.97l22.57,48.68
		c-1.51,2.92-2.83,4.96-4.16,6.46c-4.16-2.83-7.52-7.17-9.38-9.91c-5.05,0-9.29,3.36-9.29,8.59
		C17.79,227.5,21.51,231.04,27.35,231.04"/>
	<path class="st0" d="M90.19,203.6c-0.53,0.26-1.24,0.53-2.21,0.53c-2.74,0-3.63-2.66-3.63-6.2c0-2.48,0.44-4.51,1.68-5.75
		c1.24-1.24,3.01-1.33,3.98-1.33h0.18V203.6z M116.13,204.49l-0.18-0.27c-0.53,0.36-1.68,0.8-2.92,0.8c-1.77,0-2.12-0.89-2.12-2.04
		c0-5.75,1.06-20.89,1.06-25.94c0-6.64-5.05-10.8-18.41-10.8c-12.92,0-28.06,5.4-28.06,12.57c0,4.69,4.25,7.53,10.27,7.53
		c3.98,0,7.44-1.51,9.21-2.92c-2.12-4.87-3.54-10.18-3.63-14.87c0.53-0.09,1.15-0.09,1.68-0.09c5.75,0,7.17,3.63,7.17,10.53v10.98
		h-0.71c-4.07,0-18.15,0.97-23.1,5.93c-1.5,1.5-2.21,3.27-2.21,5.4c0,6.73,5.22,11.68,12.75,11.68c5.75,0,10.62-5.05,13.46-8.76
		v0.09c0,4.69,3.45,8.68,10.44,8.68C107.63,212.98,113.82,208.65,116.13,204.49"/>
	<path class="st0" d="M47.3,105.53c7.7,0,11.01-7.16,12.71-14.41c1.61-6.72,2.69-16.92,2.78-30.53h6.8v42.17
		c-1.25,0.27-3.04,0.72-4.3,1.07v0.27h29.9v-0.27c-1.16-0.36-2.78-0.81-3.85-1.07V61.03c1.07-0.27,2.69-0.72,3.85-1.07v-0.27H47.66
		v0.27c3.94,5.19,9.67,11.28,14.33,15.31l-0.09-6C60.73,82.52,58.4,90.04,55,94.78l3.76-2.78c-5.73-1.16-11.28-4.39-15.13-6.98
		c-3.76,1.97-6,5.55-6.09,10.12C37.45,101.14,41.21,105.53,47.3,105.53"/>
	<path class="st0" d="M127.41,81.4c0,18.15-0.89,22.84-4.16,22.84c-3.63,0-4.87-6.46-4.87-22.13c0-18.15,0.89-22.84,4.16-22.84
		C126.17,59.27,127.41,65.73,127.41,81.4 M149.8,80.34c0-13.1-10.09-21.95-25.67-21.95c-16.73,0-28.15,10.36-28.15,24.79
		c0,13.1,10.09,21.95,25.67,21.95C138.38,105.12,149.8,94.76,149.8,80.34"/>
</g>
</svg>
